# File created by Blade
# Date/Time:  Tue Apr 07 20:49:23 2015
# Frame Rate: 120.000 fps
#------------------------------------------------------
:FULLY-SPECIFIED
:DEGREES
382
root 3.851485 33.237283 -8.148033 -66.638720 73.981895 -107.646928
Spine -25.006906 -18.291482 20.225851
Head -3.328568 10.628257 13.815609
LeftShoulder -20.352140 47.479503 16.061927
LeftArm 53.146307 -27.034260 -82.779388
LeftForeArm 6.959678 -0.000000 23.734289
LeftHand 7.476052 -0.000000 11.329822
LeftHandThumb1 -26.253704 0.000000 33.147579
RightShoulder -21.051438 -13.968155 -7.486139
RightArm -16.094516 45.973060 65.522614
RightForeArm 79.586069 -0.000000 -0.369057
RightHand 7.928362 -0.000000 28.263116
RightHandThumb1 -24.326973 -0.000000 -32.862282
LeftUpLeg -44.022889 -6.721967 18.219187
LeftLeg 12.198410 -0.000000 -0.000000
LeftFoot -8.325566 18.668770 -2.930461
LeftToeBase -14.945068 -0.000000 0.000000
RightUpLeg -5.853713 11.346730 -17.916543
RightLeg 124.246005 -0.000000 -0.000000
RightFoot 41.873273 -0.478474 1.027537
RightToeBase 6.355994 -0.000000 -0.000000
383
root 3.822383 33.243918 -8.133403 -66.322021 73.878730 -107.678662
Spine -25.118547 -18.177011 20.247791
Head -3.522879 10.678455 13.995479
LeftShoulder -20.510855 47.514828 16.043883
LeftArm 53.241295 -27.963470 -82.888386
LeftForeArm 7.195263 -0.000000 23.854432
LeftHand 7.622975 -0.000000 11.210817
LeftHandThumb1 -26.253704 0.000000 33.147579
RightShoulder -21.147630 -14.086671 -7.518832
RightArm -16.457272 46.274792 65.076918
RightForeArm 79.597580 -0.000000 0.016587
RightHand 8.163563 -0.000000 28.624377
RightHandThumb1 -24.326973 -0.000000 -32.862282
LeftUpLeg -44.290577 -6.636736 18.406987
LeftLeg 11.966009 -0.000000 -0.000000
LeftFoot -8.088125 18.905650 -2.435683
LeftToeBase -14.940576 -0.000000 0.000000
RightUpLeg -5.384264 11.547466 -17.872490
RightLeg 123.863842 -0.000000 -0.000000
RightFoot 42.140265 -0.900267 1.240542
RightToeBase 6.113263 -0.000000 -0.000000
384
root 3.795255 33.250590 -8.118027 -66.068784 73.792971 -107.730763
Spine -25.174873 -18.099195 20.231919
Head -3.736041 10.740153 14.221688
LeftShoulder -20.693443 47.561251 16.005276
LeftArm 53.307008 -28.830967 -82.872815
LeftForeArm 7.174940 -0.000000 23.955790
LeftHand 7.595791 -0.000000 11.275457
LeftHandThumb1 -26.253704 0.000000 33.147579
RightShoulder -21.247266 -14.223464 -7.498027
RightArm -16.762495 46.497988 64.665544
RightForeArm 79.571105 -0.000000 0.451757
RightHand 8.185415 -0.000000 28.827518
RightHandThumb1 -24.326973 -0.000000 -32.862282
LeftUpLeg -44.495306 -6.589271 18.582387
LeftLeg 11.680265 -0.000000 -0.000000
LeftFoot -7.843008 19.208313 -1.949160
LeftToeBase -15.086342 -0.000000 0.000000
RightUpLeg -4.846727 11.763885 -17.834705
RightLeg 123.437465 -0.000000 -0.000000
RightFoot 42.377161 -1.231259 1.411898
RightToeBase 6.263908 -0.000000 -0.000000
385
root 3.765433 33.257528 -8.102571 -65.833601 73.709363 -107.827594
Spine -25.248269 -18.019716 20.211280
Head -3.981187 10.786957 14.486247
LeftShoulder -20.852407 47.611508 16.008838
LeftArm 53.360999 -29.715475 -82.875483
LeftForeArm 7.170932 -0.000000 24.070799
LeftHand 7.542160 0.000000 11.252819
LeftHandThumb1 -26.253704 0.000000 33.147579
RightShoulder -21.351182 -14.315542 -7.527029
RightArm -17.166214 46.705527 64.196353
RightForeArm 79.488207 -0.000000 0.887206
RightHand 8.230747 -0.000000 28.934848
RightHandThumb1 -24.326973 -0.000000 -32.862282
LeftUpLeg -44.731727 -6.599810 18.808927
LeftLeg 11.387759 -0.000000 -0.000000
LeftFoot -7.587128 19.545093 -1.483307
LeftToeBase -14.876587 -0.000000 0.000000
RightUpLeg -4.321406 11.966275 -17.814046
RightLeg 122.982157 -0.000000 -0.000000
RightFoot 42.702933 -1.448547 1.470471
RightToeBase 6.150277 -0.000000 -0.000000
386
root 3.736404 33.264596 -8.084861 -65.705636 73.617340 -108.019335
Spine -25.301268 -17.979056 20.204089
Head -4.240521 10.851293 14.758412
LeftShoulder -21.047821 47.673607 15.997255
LeftArm 53.462030 -30.592259 -82.890001
LeftForeArm 7.019113 -0.000000 24.103273
LeftHand 7.593765 -0.000000 11.278844
LeftHandThumb1 -26.253704 0.000000 33.147579
RightShoulder -21.467536 -14.379763 -7.546450
RightArm -17.550766 46.817158 63.716133
RightForeArm 79.409293 0.000000 1.292213
RightHand 8.286763 -0.000000 29.069309
RightHandThumb1 -24.326973 -0.000000 -32.862282
LeftUpLeg -44.963830 -6.599860 19.040282
LeftLeg 11.112751 -0.000000 -0.000000
LeftFoot -7.343828 19.804080 -1.034879
LeftToeBase -14.799346 -0.000000 0.000000
RightUpLeg -3.750726 12.158948 -17.771655
RightLeg 122.495982 -0.000000 -0.000000
RightFoot 43.043826 -1.524132 1.497509
RightToeBase 6.068858 -0.000000 -0.000000
